<svg aria-hidden="true" style="position: absolute; width: 0; height: 0; overflow: hidden;" version="1.1" xmlns="http://www.w3.org/2000/svg" xmlns:xlink="http://www.w3.org/1999/xlink">
<defs>
<symbol id="icon-Vector" viewBox="0 0 55 32">
<path  style="stroke: var(--color1, #086cf9)" stroke-linejoin="round" stroke-linecap="round" stroke-miterlimit="4" stroke-width="6.8571" d="M4.571 4.571l22.857 22.857 22.857-22.857"></path>
</symbol>
<symbol id="icon-success" viewBox="0 0 32 32">
<path fill="#086cf9" style="fill: var(--color1, #086cf9)" d="M9.54 11.247l1.991 1.991 4.469-4.401v1.826h1.882v-5.016h-5.015v1.882h1.777l-3.103 3.057-2.001-2.001-8.007 8.007 1.331 1.331 6.676-6.676zM5.647 32h3.764v-11.294h-3.764v11.294zM11.294 32h3.764v-13.176h-3.764v13.177zM32 9.412l-3.529-4.706 3.529-4.706h-12.236v16.941h-2.823v15.059h7.529v-15.059h-2.824v-7.53h10.353zM3.764 22.588h-3.764v9.412h3.764v-9.412z"></path>
</symbol>
<symbol id="icon-instructor" viewBox="0 0 32 32">
<path fill="#086cf9" style="fill: var(--color1, #086cf9)" d="M31.375 1.252h-30.75c-0.345 0-0.625 0.28-0.625 0.625v28.246c0 0.345 0.28 0.625 0.625 0.625h6.062c0.345 0 0.625-0.28 0.625-0.625s-0.28-0.625-0.625-0.625h-5.436v-22.499c0.020 0.002 0.041 0.003 0.062 0.003h29.438v22.496h-1.112v-2.7c0-0.001 0-0.002 0-0.003 0-1.242-0.802-2.296-1.917-2.672l-0.020-0.006-2.205-0.731c0.261-0.305 0.479-0.658 0.638-1.041l0.010-0.026h1.857c0.345 0 0.625-0.28 0.625-0.625v-1.763c0-3.374-2.745-6.12-6.119-6.12s-6.119 2.745-6.119 6.12v1.763c0 0.345 0.28 0.625 0.625 0.625h1.857c0.159 0.391 0.378 0.751 0.648 1.068l-2.205 0.731c-1.134 0.383-1.936 1.437-1.936 2.678 0 0.001 0 0.002 0 0.003v-0 2.7h-2.907c-0.345 0-0.625 0.28-0.625 0.625s0.28 0.625 0.625 0.625h18.907c0.345 0 0.625-0.28 0.625-0.625v-28.246c0-0.345-0.28-0.625-0.625-0.625zM27.376 21.068h-0.952c0.004-0.073 0.007-0.146 0.007-0.22v-0.86l-0-0.017h0.946v1.097zM17.637 21.068v-1.097h0.946l-0 0.017v0.86c0 0.074 0.003 0.147 0.007 0.22h-0.952zM18.794 18.72h-1.004c0.539-2.102 2.449-3.66 4.717-3.66s4.178 1.559 4.717 3.66h-1.005c-0.529-1.543-1.992-2.656-3.712-2.656s-3.184 1.113-3.712 2.656zM22.507 20.772c-0.345 0-0.625 0.28-0.625 0.625v0.646c0 0.345 0.28 0.625 0.625 0.625h1.956c-0.14 0.151-0.296 0.284-0.465 0.398l-0.009 0.006c-0.041 0.020-0.080 0.044-0.116 0.072-0.4 0.239-0.867 0.376-1.366 0.376-0.001 0-0.002 0-0.003 0-0.503 0-0.973-0.14-1.374-0.383l0.012 0.007c-0.034-0.027-0.072-0.052-0.112-0.072l-0.004-0.002c-0.723-0.486-1.192-1.3-1.192-2.224v-0.86c0.002-1.476 1.198-2.672 2.674-2.673h0c1.476 0.002 2.672 1.198 2.673 2.673v0.861c0 0.196-0.022 0.387-0.062 0.57h-1.987v-0.021c0-0.345-0.28-0.625-0.625-0.625zM28.388 29.498h-11.763v-2.7c0-0.68 0.434-1.281 1.080-1.495l2.972-0.985c0.529 0.286 1.158 0.454 1.826 0.454 0.001 0 0.003 0 0.004 0h-0c0.66 0 1.283-0.164 1.83-0.454l2.972 0.985c0.633 0.213 1.080 0.801 1.080 1.493 0 0.001 0 0.001 0 0.002v-0 2.7zM30.75 5.752h-29.437c-0.021 0-0.042 0.001-0.063 0.004v-3.253h29.5v3.25z"></path>
<path fill="#086cf9" style="fill: var(--color1, #086cf9)" d="M10.097 29.681c-0.113-0.112-0.269-0.181-0.44-0.181-0.345 0-0.624 0.278-0.626 0.623v0c0.001 0.345 0.28 0.624 0.625 0.625h0c0.164 0 0.325-0.067 0.442-0.183s0.183-0.278 0.183-0.442-0.067-0.325-0.183-0.442zM28 3.502h-14.121c-0.345 0-0.625 0.28-0.625 0.625s0.28 0.625 0.625 0.625h14.121c0.345 0 0.625-0.28 0.625-0.625s-0.28-0.625-0.625-0.625v0zM6.942 3.685c-0.113-0.113-0.27-0.183-0.442-0.183h-0c-0.164 0-0.326 0.067-0.442 0.183-0.113 0.113-0.183 0.269-0.183 0.442v0c0 0.164 0.067 0.326 0.183 0.442s0.277 0.183 0.442 0.183 0.326-0.067 0.442-0.183c0.116-0.116 0.183-0.277 0.183-0.442s-0.067-0.326-0.183-0.442zM4.442 3.685c-0.113-0.113-0.269-0.183-0.442-0.183h-0c-0.164 0-0.326 0.067-0.442 0.183-0.113 0.113-0.183 0.269-0.183 0.442v0c0 0.164 0.067 0.326 0.183 0.442s0.277 0.183 0.442 0.183 0.326-0.067 0.442-0.183c0.116-0.116 0.183-0.277 0.183-0.442s-0.067-0.326-0.183-0.442zM9.442 3.685c-0.113-0.113-0.269-0.183-0.442-0.183h-0c-0.164 0-0.326 0.067-0.442 0.183-0.113 0.113-0.183 0.269-0.183 0.442v0c0 0.164 0.067 0.326 0.183 0.442s0.277 0.183 0.442 0.183 0.326-0.067 0.442-0.183c0.116-0.116 0.183-0.277 0.183-0.442s-0.067-0.326-0.183-0.442zM13.397 8.627h-7.483c-1.402 0.002-2.538 1.138-2.539 2.539v5.171c0.002 1.402 1.137 2.538 2.539 2.54h7.483c1.402-0.002 2.538-1.138 2.539-2.539v-5.171c-0.002-1.402-1.137-2.538-2.539-2.54h-0zM13.397 17.627h-7.483c-0.711-0.001-1.288-0.578-1.289-1.289v-5.171c0-0.711 0.578-1.289 1.289-1.289h7.483c0.711 0 1.289 0.578 1.289 1.289v5.172c0 0.711-0.578 1.289-1.289 1.289z"></path>
<path fill="#086cf9" style="fill: var(--color1, #086cf9)" d="M11.524 12.702l-2.389-1.532c-0.19-0.124-0.423-0.197-0.673-0.197-0.689 0-1.248 0.559-1.248 1.248 0 0 0 0 0 0v-0 3.062c0 0 0 0.001 0 0.001 0 0.689 0.558 1.247 1.247 1.247 0.25 0 0.483-0.074 0.679-0.201l-0.005 0.003 2.389-1.531c0.347-0.224 0.574-0.609 0.574-1.047 0-0.001 0-0.002 0-0.004v0c0-0.427-0.215-0.82-0.574-1.050zM8.464 15.279v-3.053l2.382 1.527-2.382 1.527zM8.593 23.627h-4.593c-0.345 0-0.625 0.28-0.625 0.625s0.28 0.625 0.625 0.625h4.593c0.345 0 0.625-0.28 0.625-0.625s-0.28-0.625-0.625-0.625v0zM13.176 23.627h-1.732c-0.345 0-0.625 0.28-0.625 0.625s0.28 0.625 0.625 0.625h1.732c0.345 0 0.625-0.28 0.625-0.625s-0.28-0.625-0.625-0.625v0zM10.587 20.627h-6.587c-0.345 0-0.625 0.28-0.625 0.625s0.28 0.625 0.625 0.625h6.587c0.345 0 0.625-0.28 0.625-0.625s-0.28-0.625-0.625-0.625v0zM13.64 20.81c-0.113-0.113-0.269-0.183-0.442-0.183h-0c-0.165 0-0.326 0.067-0.442 0.183-0.113 0.113-0.183 0.269-0.183 0.442v0c0 0.164 0.067 0.326 0.183 0.442s0.277 0.184 0.442 0.184c0.164 0 0.326-0.067 0.442-0.184 0.116-0.116 0.183-0.277 0.183-0.442s-0.067-0.325-0.183-0.442zM13.175 26.627h-9.175c-0.345 0-0.625 0.28-0.625 0.625s0.28 0.625 0.625 0.625h9.175c0.345 0 0.625-0.28 0.625-0.625s-0.28-0.625-0.625-0.625v0z"></path>
</symbol>
<symbol id="icon-Group" viewBox="0 0 36 32">
<path fill="#086cf9" style="fill: var(--color1, #086cf9)" d="M33.117 16.479c1.614-0.143 2.883-1.501 2.883-3.151v-9.843c-0.001-1.747-1.417-3.163-3.164-3.165h-10.477c-1.747 0.002-3.162 1.417-3.164 3.164v4.149h-13.149c-1.747 0.002-3.162 1.417-3.164 3.164v12.656c0 0.37 0.064 0.725 0.181 1.055h-1.165c-1.048 0.001-1.898 0.851-1.899 1.899v0c0 2.907 2.365 5.273 5.274 5.273h25.453c2.909 0 5.274-2.366 5.274-5.274-0.001-1.048-0.851-1.897-1.898-1.898h-1.166c0.115-0.313 0.181-0.675 0.181-1.052 0-0.001 0-0.002 0-0.003v0-6.974zM21.305 3.484c0-0.581 0.474-1.054 1.055-1.054h10.477c0.581 0 1.055 0.474 1.055 1.055v9.843c0 0.582-0.474 1.055-1.055 1.055h-9.774c-0 0-0 0-0 0-0.207 0-0.4 0.060-0.563 0.163l0.004-0.003-2.127 1.329 0.884-2.944c0.029-0.098 0.044-0.2 0.044-0.303v-9.14zM30.727 29.57h-25.453c-1.672-0.002-3.041-1.3-3.156-2.944l-0.001-0.010h31.767c-0.116 1.654-1.484 2.951-3.157 2.953h-0zM10.055 16.563c0.001-0.66 0.536-1.194 1.195-1.195h0c0.66 0.001 1.194 0.535 1.195 1.195v0c-0.001 0.66-0.535 1.194-1.195 1.195h-0c-0.66-0.001-1.194-0.535-1.195-1.195v-0zM9.492 21.063c0-0.637 0.822-1.195 1.758-1.195 0.502 0 0.986 0.157 1.328 0.43 0.161 0.128 0.43 0.399 0.43 0.765v3.445h-3.515v-3.445zM15.117 24.508v-3.445c0-0.912-0.445-1.791-1.222-2.413l-0.053-0.041c0.444-0.556 0.713-1.268 0.713-2.044 0-0.001 0-0.002 0-0.003v0c-0.002-1.824-1.48-3.303-3.304-3.305h-0c-1.825 0.002-3.303 1.48-3.305 3.305v0c0 0.773 0.268 1.485 0.715 2.049-0.784 0.605-1.277 1.48-1.277 2.451v3.445h-1.336c-0.582-0.001-1.054-0.472-1.055-1.054v-12.656c0-0.582 0.473-1.055 1.055-1.055h13.148v2.728l-0.839 2.796c-0.058 0.183-0.091 0.394-0.091 0.612 0 0.68 0.325 1.285 0.827 1.667l0.005 0.004c0.38 0.29 0.828 0.436 1.278 0.436 0.385 0 0.773-0.108 1.119-0.324l1.87-1.169h7.643v6.961c0 0.581-0.474 1.055-1.055 1.055h-14.835z"></path>
<path fill="#086cf9" style="fill: var(--color1, #086cf9)" d="M28.688 9.883h-2.25c-0.569 0.018-1.023 0.483-1.023 1.055s0.454 1.036 1.021 1.054l0.002 0h2.25c0.569-0.018 1.023-0.483 1.023-1.054s-0.454-1.036-1.021-1.054l-0.002-0zM24.75 6.93h5.625c0.583 0 1.055-0.472 1.055-1.055s-0.472-1.055-1.055-1.055h-5.625c-0.583 0-1.055 0.472-1.055 1.055s0.472 1.055 1.055 1.055v0z"></path>
</symbol>
<symbol id="icon-play" viewBox="0 0 29 32">
<path fill="#086cf9" style="fill: var(--color1, #086cf9)" d="M28.251 14.605l-25.6-14.4c-0.225-0.128-0.494-0.203-0.781-0.203-0.883 0-1.6 0.715-1.603 1.598v28.8c0 0.001 0 0.001 0 0.002 0 0.883 0.716 1.599 1.599 1.599 0.289 0 0.559-0.076 0.793-0.21l-0.008 0.004 25.6-14.4c0.503-0.284 0.816-0.816 0.816-1.395s-0.313-1.111-0.816-1.395z"></path>
</symbol>
<symbol id="icon-choices" viewBox="0 0 32 32">
<path fill="#086cf9" style="fill: var(--color1, #086cf9)" d="M9.854 6.414c-0.277 0-0.501 0.224-0.501 0.501-0.001 0.608-0.494 1.101-1.102 1.102h-0c-0.609-0.001-1.102-0.494-1.102-1.102v-0c0.001-0.608 0.494-1.101 1.102-1.102h0c0.277 0 0.501-0.224 0.501-0.501s-0.224-0.501-0.501-0.501v0c-1.162 0.002-2.103 0.943-2.104 2.104v0c0 1.16 0.944 2.104 2.104 2.104s2.104-0.944 2.104-2.104c0-0.277-0.224-0.501-0.501-0.501zM9.854 12.292c-0.277 0-0.501 0.224-0.501 0.501-0.001 0.608-0.494 1.101-1.102 1.102h-0c-0.608-0.001-1.101-0.494-1.102-1.102v-0c0.001-0.609 0.494-1.102 1.102-1.102h0c0.271-0.008 0.487-0.229 0.487-0.501s-0.216-0.493-0.486-0.501l-0.001-0c-1.161 0.002-2.102 0.943-2.104 2.104v0c0 1.16 0.944 2.105 2.104 2.105s2.104-0.944 2.104-2.104c0-0.277-0.224-0.501-0.501-0.501zM15.733 13.361h-3.741c-0.277 0-0.501 0.224-0.501 0.501s0.224 0.501 0.501 0.501h3.741c0.277 0 0.501-0.224 0.501-0.501s-0.224-0.501-0.501-0.501v0zM15.733 11.224h-3.741c-0.271 0.008-0.487 0.229-0.487 0.501s0.216 0.493 0.486 0.501l0.001 0h3.741c0.271-0.008 0.487-0.229 0.487-0.501s-0.216-0.493-0.486-0.501l-0.001-0zM14.664 19.24h-2.672c-0.277 0-0.501 0.224-0.501 0.501s0.224 0.501 0.501 0.501h2.672c0.271-0.008 0.487-0.229 0.487-0.501s-0.216-0.493-0.486-0.501l-0.001-0zM15.733 17.102h-3.741c-0.004-0-0.009-0-0.014-0-0.277 0-0.501 0.224-0.501 0.501s0.224 0.501 0.501 0.501c0.005 0 0.010-0 0.015-0l-0.001 0h3.741c0.271-0.008 0.487-0.229 0.487-0.501s-0.216-0.493-0.486-0.501l-0.001-0zM20.543 7.482h-8.551c-0.004-0-0.009-0-0.014-0-0.277 0-0.501 0.224-0.501 0.501s0.224 0.501 0.501 0.501c0.005 0 0.010-0 0.015-0l-0.001 0h8.551c0.271-0.008 0.487-0.229 0.487-0.501s-0.216-0.493-0.486-0.501l-0.001-0zM18.405 5.344h-6.413c-0.277 0-0.501 0.224-0.501 0.501s0.224 0.501 0.501 0.501h6.413c0.277 0 0.501-0.224 0.501-0.501s-0.224-0.501-0.501-0.501v0zM9.854 18.171c-0.277 0-0.501 0.224-0.501 0.501-0.001 0.609-0.494 1.102-1.102 1.102h-0c-0.609-0.001-1.102-0.494-1.102-1.102v-0c0.001-0.609 0.494-1.102 1.102-1.102h0c0.004 0 0.009 0 0.014 0 0.277 0 0.501-0.224 0.501-0.501s-0.224-0.501-0.501-0.501c-0.005 0-0.010 0-0.015 0l0.001-0c-1.161 0.002-2.102 0.943-2.104 2.104v0c0 1.161 0.944 2.105 2.104 2.105s2.104-0.944 2.104-2.104c0-0.277-0.224-0.501-0.501-0.501z"></path>
<path fill="#086cf9" style="fill: var(--color1, #086cf9)" d="M22.68 0h-18.171c-0.866 0.002-1.568 0.704-1.569 1.57v22.447c0.001 0.867 0.703 1.569 1.57 1.57h9.085c0.277 0 0.501-0.224 0.501-0.501s-0.224-0.501-0.501-0.501h-9.086c-0.313 0-0.568-0.255-0.568-0.568v-22.446c0-0.313 0.255-0.568 0.568-0.568h18.171c0.313 0 0.568 0.255 0.568 0.568v16.568c0.008 0.271 0.229 0.487 0.501 0.487s0.493-0.216 0.501-0.486l0-0.001v-16.568c-0.001-0.867-0.703-1.569-1.57-1.57h-0z"></path>
<path fill="#086cf9" style="fill: var(--color1, #086cf9)" d="M27.411 20.318c-0.055-0.006-0.119-0.009-0.184-0.009-0.421 0-0.81 0.141-1.12 0.378l0.005-0.003c-0.293-0.492-0.794-0.842-1.373-0.9-0.055-0.006-0.119-0.009-0.184-0.009-0.421 0-0.809 0.141-1.12 0.378l0.005-0.003c-0.293-0.492-0.794-0.842-1.372-0.9-0.055-0.006-0.119-0.009-0.184-0.009-0.306 0-0.595 0.074-0.85 0.206l0.010-0.005v-6.381c0-0.518-0.22-1.015-0.605-1.362-0.326-0.294-0.759-0.474-1.235-0.474-0.065 0-0.129 0.003-0.193 0.010l0.008-0.001c-0.925 0.092-1.649 0.929-1.649 1.904v6.397l-1.473 1.473c-0.575 0.571-0.932 1.363-0.932 2.238 0 0.26 0.031 0.513 0.091 0.755l-0.005-0.022 1.118 4.752c0.449 1.888 2.121 3.271 4.117 3.271 0.005 0 0.009 0 0.014-0h4.518c2.339 0 4.242-1.903 4.242-4.242v-5.535c0-0.975-0.724-1.812-1.649-1.904zM28.058 27.758c0 1.786-1.454 3.24-3.24 3.24h-4.519c-0.003 0-0.006 0-0.010 0-1.524 0-2.801-1.056-3.14-2.476l-0.004-0.022-1.118-4.752c-0.038-0.151-0.059-0.324-0.059-0.502 0-0.598 0.244-1.14 0.637-1.531l0.764-0.764v1.729c0 0.277 0.224 0.501 0.501 0.501s0.501-0.224 0.501-0.501v0-9.544c0-0.466 0.328-0.865 0.747-0.907 0.027-0.003 0.058-0.005 0.089-0.005 0.215 0 0.412 0.082 0.559 0.217l-0.001-0.001c0.175 0.158 0.275 0.384 0.275 0.62v8.818c0.008 0.271 0.229 0.487 0.501 0.487s0.493-0.216 0.501-0.486l0-0.001v-0.802c0.001-0.461 0.375-0.835 0.837-0.835 0.030 0 0.060 0.002 0.090 0.005l-0.004-0c0.419 0.042 0.747 0.44 0.747 0.907v1.26c0 0.277 0.224 0.501 0.501 0.501s0.501-0.224 0.501-0.501v0-0.802c0.001-0.461 0.375-0.835 0.837-0.835 0.030 0 0.060 0.002 0.090 0.005l-0.004-0c0.419 0.042 0.747 0.44 0.747 0.907v1.26c-0 0.004-0 0.009-0 0.014 0 0.277 0.224 0.501 0.501 0.501s0.501-0.224 0.501-0.501c0-0.005-0-0.010-0-0.015l0 0.001v-0.802c0.001-0.461 0.375-0.835 0.837-0.835 0.030 0 0.061 0.002 0.090 0.005l-0.004-0c0.419 0.042 0.747 0.44 0.747 0.907v5.536z"></path>
</symbol>
<symbol id="icon-notes" viewBox="0 0 32 32">
<path fill="#086cf9" style="fill: var(--color1, #086cf9)" d="M22.214 32.003c0.735-0.002 1.354-0.497 1.543-1.172l0.003-0.011 1.474-5.505 5.584-1.492c0.687-0.191 1.182-0.811 1.182-1.546 0-0.147-0.020-0.289-0.057-0.423l0.003 0.011-2.896-10.791 0.229-0.853c0.034-0.122 0.053-0.263 0.053-0.408 0-0.674-0.417-1.25-1.006-1.486l-0.011-0.004-1.304-4.866c-0.193-0.688-0.815-1.184-1.553-1.184-0.144 0-0.284 0.019-0.417 0.055l0.011-0.003-9.523 2.554-7.985-2.141c-0.124-0.035-0.267-0.056-0.415-0.056-0.207 0-0.405 0.040-0.586 0.113l0.011-0.004-1.995-1.992c-0.482-0.483-1.149-0.781-1.885-0.781-1.472 0-2.666 1.194-2.666 2.666 0 0.736 0.298 1.402 0.781 1.885l3.636 3.636-4.356 16.262c-0.035 0.124-0.054 0.267-0.054 0.414 0 0.736 0.496 1.356 1.171 1.544l0.011 0.003 20.602 5.52c0.135 0.037 0.275 0.056 0.415 0.055zM30.914 22.139c0.011 0.041 0.018 0.089 0.018 0.138 0 0.244-0.164 0.45-0.388 0.513l-0.004 0.001-4.988 1.333 2.944-10.989 2.417 9.004zM25.325 3.355c0.042-0.012 0.091-0.019 0.141-0.019 0.246 0 0.453 0.167 0.515 0.394l0.001 0.004 1.138 4.249-9.53-2.553 7.736-2.074zM16.154 16.167l-2.692-0.897 1.795-1.796 0.897 2.691v0.002zM13.984 13.241l-4.524-4.524c-0.097-0.102-0.235-0.166-0.387-0.166-0.294 0-0.533 0.239-0.533 0.533 0 0.152 0.064 0.29 0.166 0.387l4.524 4.524-0.754 0.754-7.541-7.541 0.754-0.754 1.508 1.508c0.097 0.097 0.23 0.156 0.377 0.156 0.295 0 0.533-0.239 0.533-0.533 0-0.147-0.060-0.281-0.156-0.377v0l-1.508-1.508 0.754-0.754 7.54 7.541-0.754 0.754zM3.428 5.701l2.262-2.262 0.754 0.754-2.262 2.262-0.754-0.754zM1.074 2.684c0-0.883 0.716-1.6 1.6-1.6 0.442 0 0.842 0.179 1.131 0.468l1.131 1.131-2.262 2.262-1.132-1.132c-0.289-0.288-0.468-0.686-0.468-1.126 0-0.002 0-0.003 0-0.005v0zM1.099 24.746l4.197-15.67 6.803 6.803c0.056 0.054 0.122 0.096 0.196 0.121 0.004 0 0.008 0.006 0.012 0.007l3.512 1.173c0.11 0.036 0.225 0.054 0.34 0.054 0.21-0.001 0.406-0.063 0.57-0.169l-0.004 0.003 6.132 1.646c0.041 0.012 0.089 0.018 0.138 0.018 0.294 0 0.533-0.239 0.533-0.533 0-0.245-0.166-0.452-0.391-0.514l-0.004-0.001-5.918-1.588c-0.006-0.097-0.023-0.188-0.051-0.275l0.002 0.008-1.173-3.512c0-0.005-0.006-0.008-0.008-0.013-0.027-0.076-0.068-0.141-0.121-0.195l-8.241-8.244 20.245 5.423c0.23 0.063 0.396 0.27 0.396 0.515 0 0.049-0.007 0.097-0.019 0.143l0.001-0.004-5.518 20.599c-0.063 0.23-0.269 0.396-0.515 0.396-0.049 0-0.097-0.007-0.143-0.019l0.004 0.001-20.6-5.518c-0.23-0.063-0.395-0.27-0.395-0.515 0-0.049 0.007-0.097 0.019-0.142l-0.001 0.004z"></path>
<path fill="#086cf9" style="fill: var(--color1, #086cf9)" d="M24.654 12.55c0.293-0.002 0.529-0.24 0.529-0.534 0-0.244-0.164-0.45-0.388-0.514l-0.004-0.001-7.583-2.032c-0.046-0.014-0.099-0.023-0.153-0.023-0.294 0-0.532 0.238-0.532 0.532 0 0.051 0.007 0.1 0.021 0.147l-0.001-0.004c0.052 0.187 0.201 0.331 0.39 0.376l7.584 2.032c0.045 0.012 0.092 0.018 0.138 0.018zM23.825 15.64c0.294-0.001 0.532-0.239 0.532-0.533 0-0.245-0.165-0.452-0.391-0.514l-0.004-0.001-5.156-1.379c-0.041-0.011-0.089-0.018-0.138-0.018-0.294 0-0.533 0.239-0.533 0.533 0 0.245 0.166 0.452 0.392 0.514l0.004 0.001 5.156 1.38c0.045 0.012 0.091 0.018 0.138 0.018zM7.373 16.77l-1.546-0.414c-0.042-0.012-0.089-0.018-0.138-0.018-0.294 0-0.533 0.239-0.533 0.533 0 0.245 0.165 0.452 0.391 0.514l0.004 0.001 1.546 0.415c0.042 0.012 0.089 0.018 0.138 0.018 0.295 0 0.533-0.239 0.533-0.533 0-0.245-0.166-0.452-0.391-0.514l-0.004-0.001zM22.685 21.424c0.076-0.284-0.093-0.576-0.377-0.653l-11.846-3.173c-0.030-0.006-0.065-0.009-0.1-0.009-0.294 0-0.533 0.239-0.533 0.533 0 0.232 0.148 0.429 0.354 0.502l0.004 0.001 11.845 3.174c0.042 0.012 0.090 0.018 0.139 0.018 0.245 0 0.451-0.165 0.513-0.39l0.001-0.004zM6.544 19.86l-1.546-0.415c-0.041-0.012-0.089-0.018-0.138-0.018-0.295 0-0.533 0.239-0.533 0.533 0 0.245 0.166 0.452 0.392 0.514l0.004 0.001 1.546 0.414c0.041 0.012 0.089 0.018 0.138 0.018 0.294 0 0.533-0.239 0.533-0.533 0-0.245-0.166-0.452-0.391-0.514l-0.004-0.001zM21.48 23.862l-11.846-3.174c-0.047-0.015-0.102-0.024-0.159-0.024-0.295 0-0.534 0.239-0.534 0.534 0 0.253 0.176 0.465 0.413 0.52l0.004 0.001 11.845 3.174c0.049 0.016 0.105 0.025 0.163 0.025 0.295 0 0.534-0.239 0.534-0.534 0-0.255-0.178-0.468-0.417-0.521l-0.004-0.001z"></path>
</symbol>
<symbol id="icon-Group-2" viewBox="0 0 35 32">
<path fill="#086cf9" style="fill: var(--color1, #086cf9)" d="M33.199 2.115h-8.688c-0.246-1.164-1.264-2.025-2.483-2.026h-9.459c-1.22 0.002-2.237 0.863-2.48 2.011l-0.003 0.017h-8.689c-0.77 0.001-1.395 0.625-1.396 1.395v21.867c0.001 0.77 0.625 1.395 1.396 1.395h12.163l-0.684 2.101h-1.42c-0.971 0.001-1.759 0.788-1.76 1.759v0c0.001 0.707 0.574 1.28 1.281 1.28h12.641c0.707-0.001 1.28-0.574 1.281-1.281v-0c-0.001-0.971-0.789-1.758-1.76-1.759h-1.419l-0.684-2.101h12.163c0.771-0 1.395-0.625 1.396-1.395v-21.866c-0.001-0.771-0.625-1.395-1.396-1.395h-0zM19.323 1.102h2.704c0.839 0.001 1.519 0.681 1.52 1.52v0c-0.001 0.839-0.681 1.519-1.52 1.52h-2.704c0.317-0.417 0.508-0.945 0.508-1.518 0-0.001 0-0.002 0-0.002v0c0-0.001 0-0.002 0-0.003 0-0.573-0.191-1.101-0.513-1.524l0.005 0.006zM17.297 1.102c0.839 0.001 1.519 0.681 1.52 1.52v0c-0.001 0.839-0.681 1.519-1.52 1.52h-0c-0.839-0.001-1.519-0.681-1.52-1.52v-0c0.001-0.84 0.681-1.52 1.52-1.521h0zM12.567 1.102h2.704c-0.317 0.417-0.508 0.945-0.508 1.518 0 0.001 0 0.002 0 0.002v-0c0 0.57 0.189 1.097 0.508 1.52h-2.704c-0.839-0.001-1.519-0.681-1.52-1.52v-0c0.001-0.839 0.681-1.519 1.52-1.52h0zM23.139 29.887c0.411 0 0.746 0.334 0.746 0.746 0 0.147-0.12 0.267-0.267 0.267h-12.641c-0.148-0-0.267-0.12-0.267-0.267v-0c0-0.412 0.335-0.746 0.746-0.746h3.565c0.28 0 0.507-0.227 0.507-0.507s-0.227-0.507-0.507-0.507h-1.079l0.683-2.1h5.345l0.684 2.1h-3.294c-0.004-0-0.010-0-0.015-0-0.28 0-0.507 0.227-0.507 0.507s0.227 0.507 0.507 0.507c0.005 0 0.010-0 0.016-0l-0.001 0h5.78zM33.581 6.168h-23.379c-0.28 0-0.507 0.227-0.507 0.507s0.227 0.507 0.507 0.507v0h23.378v14.524h-3.834c-0.004-0-0.010-0-0.015-0-0.28 0-0.507 0.227-0.507 0.507s0.227 0.507 0.507 0.507c0.005 0 0.010-0 0.016-0l-0.001 0h3.834v2.658c-0 0.211-0.171 0.382-0.382 0.382h-31.803c-0.211-0-0.382-0.171-0.382-0.382v-2.658h26.401c0.004 0 0.010 0 0.015 0 0.28 0 0.507-0.227 0.507-0.507s-0.227-0.507-0.507-0.507c-0.005 0-0.010 0-0.016 0l0.001-0h-1.936c-0.382-1.078-1.277-1.886-2.382-2.141l-0.022-0.004-3.842-0.78c-0.024-0.177-0.038-0.381-0.038-0.588 0-0.129 0.005-0.257 0.016-0.383l-0.001 0.017c1.347-1.126 2.002-2.123 2.002-3.046 0-0.099-0.004-0.198-0.013-0.299-0.022-0.221-0.034-1.237-0.029-2.473 0-0.007 0-0.015 0-0.023 0-1.033-0.419-1.968-1.097-2.645l-0-0c-0.678-0.684-1.618-1.107-2.656-1.107-0.004 0-0.007 0-0.011 0h0c-1.008 0-1.955 0.393-2.667 1.107-0.678 0.676-1.098 1.612-1.098 2.645 0 0.008 0 0.016 0 0.024v-0.001c0.004 1.236-0.008 2.254-0.030 2.48-0.008 0.092-0.012 0.19-0.012 0.291 0 0.921 0.654 1.917 1.995 3.040 0.025 0.322 0.016 0.627-0.027 0.944l-3.91 0.796c-1.128 0.259-2.022 1.067-2.397 2.122l-0.007 0.023h-8.238v-14.524h6.87c0.28 0 0.507-0.227 0.507-0.507s-0.227-0.507-0.507-0.507h-6.87v-2.658c0-0.211 0.171-0.382 0.382-0.382h8.688c0.246 1.164 1.263 2.025 2.482 2.027h9.46c1.22-0.002 2.237-0.863 2.48-2.011l0.003-0.017h8.689c0.211 0 0.382 0.172 0.382 0.382v2.658zM14.654 12.007c-0-0.005-0-0.011-0-0.017 0-0.755 0.307-1.438 0.802-1.932l0-0c0.495-0.5 1.182-0.809 1.941-0.809 0.003 0 0.006 0 0.008 0v0c0.002 0 0.005 0 0.007 0 0.759 0 1.446 0.31 1.941 0.809l0 0c0.495 0.494 0.801 1.177 0.801 1.932 0 0.006-0 0.012-0 0.017v-0.001c-0.003 1.040 0.003 2.262 0.034 2.569 0.006 0.066 0.009 0.135 0.009 0.207 0 0.609-0.64 1.462-1.802 2.403-0.267 0.218-0.612 0.35-0.988 0.35h-0.003c-0.363 0-0.712-0.124-0.992-0.352-1.161-0.939-1.8-1.792-1.8-2.401 0-0.072 0.003-0.141 0.008-0.198 0.031-0.314 0.038-1.538 0.035-2.577zM18.247 19.053l-0.076 0.081c-0.222 0.236-0.492 0.366-0.763 0.366h-0.004c-0.269 0-0.541-0.13-0.763-0.368l-0.089-0.095c0.033-0.207 0.053-0.41 0.063-0.613 0.235 0.078 0.505 0.123 0.785 0.124h0.010c0.277-0 0.544-0.044 0.794-0.125l-0.018 0.005c0.009 0.209 0.029 0.416 0.061 0.625zM15.827 19.746l0.075 0.080c0.416 0.443 0.949 0.687 1.498 0.687h0.010c0.552 0 1.085-0.243 1.499-0.685l0.061-0.066 3.896 0.791c0.658 0.155 1.196 0.576 1.504 1.14l0.006 0.012h-14.023c0.314-0.577 0.852-0.998 1.494-1.15l0.016-0.003 3.964-0.806z"></path>
</symbol>
<symbol id="icon-technical-support" viewBox="0 0 32 32">
<path fill="#086cf9" style="fill: var(--color1, #086cf9)" d="M5.628 24.747c-0.448 0-0.878 0.112-1.26 0.322-1.942-2.476-3.115-5.635-3.118-9.068v-0c0-8.133 6.617-14.75 14.75-14.75 0.989 0 1.977 0.098 2.938 0.292 0.032 0.006 0.070 0.009 0.108 0.009 0.345 0 0.625-0.28 0.625-0.625 0-0.296-0.205-0.543-0.481-0.609l-0.004-0.001c-0.957-0.202-2.056-0.317-3.182-0.317-0.001 0-0.002 0-0.003 0h0c-4.274 0-8.292 1.664-11.314 4.686s-4.686 7.040-4.686 11.314c0.002 3.76 1.299 7.217 3.469 9.949l-0.025-0.033c-0.276 0.407-0.44 0.909-0.44 1.449 0 0.002 0 0.005 0 0.007v-0c0 0.701 0.273 1.36 0.769 1.856 0.472 0.475 1.126 0.769 1.849 0.769 0.003 0 0.005 0 0.008 0h-0c0.002 0 0.005 0 0.007 0 0.723 0 1.377-0.294 1.849-0.769l0-0c0.475-0.472 0.769-1.126 0.769-1.849 0-0.003 0-0.005 0-0.008v0c0-0.701-0.273-1.36-0.769-1.856-0.472-0.475-1.126-0.769-1.849-0.769-0.003 0-0.005 0-0.008 0h0zM6.6 28.344c-0.247 0.249-0.59 0.403-0.968 0.403-0.001 0-0.003 0-0.004 0h0c-0.001 0-0.002 0-0.003 0-0.379 0-0.721-0.154-0.969-0.403l-0-0c-0.249-0.247-0.403-0.59-0.403-0.969 0-0.001 0-0.002 0-0.004v0c0-0.368 0.143-0.713 0.403-0.972 0.247-0.249 0.59-0.403 0.968-0.403 0.001 0 0.003 0 0.004 0h-0c0.367 0 0.712 0.143 0.972 0.403 0.249 0.247 0.403 0.59 0.403 0.969 0 0.001 0 0.002 0 0.003v-0c0 0.367-0.143 0.713-0.403 0.972zM28.556 6.084c0.68-1.020 0.57-2.413-0.328-3.312-0.473-0.475-1.126-0.768-1.849-0.768-0.002 0-0.005 0-0.007 0h0c-0.702 0-1.361 0.273-1.856 0.769-0.475 0.472-0.769 1.126-0.769 1.849 0 0.002 0 0.005 0 0.007v-0c0 0.701 0.273 1.36 0.769 1.856 0.472 0.475 1.127 0.769 1.849 0.769 0.002 0 0.005 0 0.007 0h-0c0.448 0 0.879-0.112 1.261-0.322 1.942 2.476 3.115 5.635 3.118 9.068v0.001c0 8.133-6.617 14.75-14.75 14.75-0.979 0-1.958-0.096-2.91-0.287-0.028-0.005-0.061-0.007-0.095-0.007-0.345 0-0.626 0.28-0.626 0.626 0 0.292 0.2 0.537 0.471 0.606l0.004 0.001c0.948 0.198 2.037 0.311 3.153 0.311 0.001 0 0.001 0 0.002 0h-0c4.274 0 8.292-1.664 11.314-4.686s4.686-7.040 4.686-11.314c0-3.595-1.221-7.104-3.444-9.916zM25.4 5.6c-0.249-0.247-0.403-0.59-0.403-0.969 0-0.001 0-0.002 0-0.004v0c0-0.368 0.143-0.713 0.403-0.972 0.247-0.249 0.59-0.403 0.968-0.403 0.001 0 0.003 0 0.004 0h-0c0.367 0 0.713 0.143 0.972 0.403 0.248 0.249 0.402 0.593 0.402 0.972s-0.154 0.723-0.402 0.972l0-0c-0.248 0.249-0.59 0.403-0.969 0.403-0.001 0-0.002 0-0.003 0h0c-0.001 0-0.003 0-0.005 0-0.379 0-0.721-0.154-0.969-0.403l-0-0z"></path>
<path fill="#086cf9" style="fill: var(--color1, #086cf9)" d="M13.421 26.75c0 0.345 0.28 0.625 0.625 0.625h3.908c0.345 0 0.625-0.28 0.625-0.625v-1.212c0.892-0.243 1.671-0.575 2.392-0.997l-0.046 0.025 0.856 0.856c0.113 0.113 0.269 0.183 0.442 0.183s0.329-0.070 0.442-0.183l2.762-2.764c0.244-0.244 0.244-0.64 0-0.884l-0.855-0.854c0.397-0.674 0.729-1.454 0.956-2.277l0.016-0.069h1.207c0.346 0 0.625-0.28 0.625-0.625v-3.908c0-0.345-0.28-0.625-0.625-0.625h-1.207c-0.243-0.892-0.576-1.671-0.997-2.392l0.025 0.046 0.85-0.85c0.113-0.113 0.183-0.269 0.183-0.442s-0.070-0.329-0.183-0.442v0l-2.765-2.762c-0.244-0.244-0.64-0.244-0.884 0l-0.849 0.849c-0.674-0.397-1.454-0.729-2.277-0.956l-0.069-0.016v-1.2c0-0.345-0.28-0.625-0.625-0.625h-3.908c-0.345 0-0.625 0.28-0.625 0.625v1.201c-0.892 0.243-1.671 0.575-2.391 0.997l0.046-0.025-0.849-0.849c-0.244-0.244-0.64-0.244-0.884 0l-2.764 2.762c-0.113 0.113-0.183 0.269-0.183 0.442s0.070 0.329 0.183 0.442v0l0.85 0.85c-0.397 0.674-0.729 1.454-0.956 2.276l-0.016 0.069h-1.205c-0.345 0-0.625 0.28-0.625 0.625l-0.002 3.908c0 0 0 0.001 0 0.001 0 0.345 0.279 0.624 0.624 0.624 0 0 0.001 0 0.001 0h1.207c0.243 0.892 0.575 1.671 0.997 2.392l-0.025-0.046-0.854 0.855c-0.244 0.244-0.244 0.64 0 0.884l2.762 2.764c0.113 0.113 0.269 0.183 0.442 0.183s0.329-0.070 0.442-0.183l0.855-0.856c0.674 0.396 1.454 0.728 2.277 0.956l0.069 0.016v1.212zM11.32 23.252c-0.096-0.063-0.213-0.1-0.339-0.1-0.173 0-0.329 0.070-0.442 0.183l-0.761 0.761-1.879-1.88 0.76-0.76c0.208-0.208 0.243-0.534 0.083-0.781-0.538-0.819-0.948-1.775-1.173-2.8l-0.011-0.057c-0.063-0.284-0.313-0.494-0.611-0.494 0 0 0 0 0 0h-1.073l0.001-2.658h1.072c0.295 0 0.549-0.206 0.611-0.494 0.237-1.082 0.647-2.038 1.204-2.889l-0.020 0.033c0.16-0.247 0.125-0.573-0.083-0.781l-0.755-0.756 1.88-1.879 0.755 0.755c0.208 0.208 0.534 0.242 0.781 0.083 0.818-0.538 1.775-0.948 2.8-1.174l0.057-0.010c0.284-0.063 0.493-0.312 0.494-0.611v-1.068h2.658v1.067c0 0.295 0.206 0.55 0.494 0.611 1.082 0.237 2.039 0.646 2.89 1.204l-0.033-0.020c0.247 0.16 0.572 0.125 0.781-0.083l0.755-0.755 1.88 1.879-0.755 0.756c-0.113 0.113-0.183 0.269-0.183 0.442 0 0.126 0.037 0.244 0.102 0.342l-0.001-0.002c0.537 0.818 0.947 1.775 1.174 2.8l0.011 0.057c0.062 0.288 0.316 0.494 0.611 0.494h1.074v2.658h-1.074c-0.295 0-0.549 0.206-0.611 0.494-0.236 1.082-0.646 2.039-1.204 2.89l0.020-0.033c-0.16 0.247-0.125 0.573 0.083 0.781l0.76 0.76-1.878 1.88-0.761-0.76c-0.113-0.113-0.269-0.183-0.442-0.183-0.126 0-0.243 0.037-0.342 0.102l0.002-0.001c-0.819 0.537-1.775 0.947-2.8 1.174l-0.057 0.011c-0.284 0.063-0.494 0.312-0.494 0.611 0 0 0 0 0 0v-0 1.078h-2.658v-1.078c0-0.294-0.206-0.549-0.494-0.611-1.082-0.237-2.038-0.646-2.889-1.204l0.033 0.020z"></path>
<path fill="#086cf9" style="fill: var(--color1, #086cf9)" d="M21.164 16c0-2.848-2.316-5.164-5.164-5.164s-5.164 2.316-5.164 5.164c0 2.848 2.316 5.164 5.164 5.164s5.164-2.316 5.164-5.164zM12.086 16c0-2.159 1.756-3.914 3.914-3.914s3.914 1.756 3.914 3.914c0 2.158-1.756 3.914-3.914 3.914s-3.914-1.756-3.914-3.914zM21.755 2.364c0.165 0 0.326-0.067 0.442-0.184s0.183-0.278 0.183-0.442c0-0.164-0.067-0.325-0.183-0.442-0.113-0.113-0.269-0.183-0.442-0.183h-0c-0.172 0-0.328 0.070-0.442 0.183l0-0c-0.113 0.113-0.183 0.269-0.183 0.442v0c0 0.165 0.067 0.326 0.183 0.442s0.277 0.183 0.442 0.183zM10.272 29.648c-0.164 0-0.326 0.066-0.442 0.183s-0.183 0.278-0.183 0.442c0 0.165 0.067 0.326 0.183 0.442s0.278 0.183 0.442 0.183c0.164 0 0.326-0.067 0.442-0.183s0.183-0.278 0.183-0.442c0-0.164-0.067-0.326-0.183-0.442-0.113-0.113-0.269-0.183-0.442-0.183h-0z"></path>
</symbol>
</defs>
</svg>
